<?xml version="1.0" encoding="UTF-8"?>
<!-- Generator: Adobe Illustrator 15.0.0, SVG Export Plug-In . SVG Version: 6.00 Build 0)  -->
<!DOCTYPE svg PUBLIC "-//W3C//DTD SVG 1.1//EN" "http://www.w3.org/Graphics/SVG/1.1/DTD/svg11.dtd">
<svg version="1.1" id="Ebene_1" xmlns="http://www.w3.org/2000/svg" xmlns:xlink="http://www.w3.org/1999/xlink" x="0px" y="0px" width="304px" height="66px" viewBox="0 0 304 66" enable-background="new 0 0 304 66" xml:space="preserve">
<polyline fill-rule="evenodd" clip-rule="evenodd" fill="none" points="1,1 302.299,1 302.299,64.82 1,64.82 "/>
<polyline fill="none" points="1,1 303,1 303,65 1,65 "/>
<polyline fill="#009A9B" points="1,10.431 37.803,5.254 37.803,1 1,6.176 "/>
<polygon fill="#6F6F6E" points="39.221,5.254 39.221,1 69.074,5.184 69.074,9.438 "/>
<polygon fill="#6F6F6E" points="42.943,9.332 69.074,12.098 69.074,16.352 42.943,13.586 "/>
<polyline fill-rule="evenodd" clip-rule="evenodd" fill="none" points="1,1 302.299,1 302.299,64.82 1,64.82 "/>
<polyline fill="none" points="1,1 303,1 303,65 1,65 "/>
<polyline fill="#009A9B" points="1,17.841 41.525,13.586 41.525,9.332 1,13.586 "/>
<polygon fill="#6F6F6E" points="46.631,17.806 69.074,19.366 69.074,23.621 46.631,22.061 "/>
<polyline fill-rule="evenodd" clip-rule="evenodd" fill="none" points="1,1 302.299,1 302.299,64.82 1,64.82 "/>
<polyline fill="none" points="1,1 303,1 303,65 1,65 "/>
<polyline fill="#009A9B" points="1,25.145 45.213,22.061 45.213,17.806 1,20.891 "/>
<polygon fill="#6F6F6E" points="46.702,26.634 69.074,27.414 69.074,31.669 46.702,30.889 "/>
<polyline fill-rule="evenodd" clip-rule="evenodd" fill="none" points="1,1 302.299,1 302.299,64.82 1,64.82 "/>
<polyline fill="none" points="1,1 303,1 303,65 1,65 "/>
<polyline fill="#009A9B" points="1,32.414 45.284,30.889 45.284,26.634 1,28.159 "/>
<rect x="43.192" y="35.463" fill="#6F6F6E" width="25.882" height="4.254"/>
<polyline fill="#009A9B" points="1,35.463 41.773,35.463 41.773,39.717 1,39.717 "/>
<polyline fill-rule="evenodd" clip-rule="evenodd" fill="none" points="1,1 302.299,1 302.299,64.82 1,64.82 "/>
<polyline fill="none" points="1,1 303,1 303,65 1,65 "/>
<polygon fill="#6F6F6E" points="39.611,48.297 69.074,47.27 69.074,43.015 39.611,44.043 "/>
<polyline fill="#009A9B" points="1,42.73 38.192,44.043 38.192,48.297 1,46.985 "/>
<polyline fill-rule="evenodd" clip-rule="evenodd" fill="none" points="1,1 302.299,1 302.299,64.82 1,64.82 "/>
<polyline fill="none" points="1,1 303,1 303,65 1,65 "/>
<polygon fill="#6F6F6E" points="32.378,64.819 69.074,60.955 69.074,56.7 32.378,60.564 "/>
<polyline fill="#009A9B" points="1,57.409 30.959,60.564 30.959,64.819 1,61.664 "/>
<polyline fill="#009A9B" points="1,49.999 34.576,52.375 34.576,56.629 1,54.254 "/>
<polyline fill-rule="evenodd" clip-rule="evenodd" fill="none" points="1,1 302.299,1 302.299,64.82 1,64.82 "/>
<polyline fill="none" points="1,1 303,1 303,65 1,65 "/>
<polygon fill="#6F6F6E" points="35.994,56.629 69.074,54.289 69.074,50.035 35.994,52.375 "/>
<polyline fill="none" points="1,1 303,1 303,65 1,65 "/>
<path fill="#009A9B" d="M92.936,29.683c-2.695,0-7.126-0.638-9.679-1.205v7.126c3.014,0.567,6.772,1.028,10.424,1.028  c6.772,0,12.834-2.376,12.834-10.424c0-12.622-14.714-7.162-14.714-11.842c0-2.057,1.879-2.659,4.574-2.659  c2.73,0,6.134,0.425,8.403,0.815V5.361c-2.694-0.248-5.673-0.638-8.757-0.638c-6.559,0-13.295,1.844-13.295,9.857  c0,12.834,14.572,7.587,14.572,12.232C97.296,28.797,95.843,29.683,92.936,29.683 M106.196,36.137h9.396l1.489-5.532h9.856  l1.489,5.532h9.396l-9.856-30.917h-11.984L106.196,36.137z M124.987,23.585h-6.063l2.836-11.31h0.39 M139.63,5.254v30.882h21.734  v-7.056h-12.729V5.254H139.63z"/>
<polyline fill="none" points="1,1 303,1 303,65 1,65 "/>
<path fill="#009A9B" d="M87.298,59.75c-1.277,0-2.375-0.143-4.042-0.426v1.524c1.17,0.177,2.588,0.354,4.148,0.354  c3.51,0,5.46-1.702,5.46-4.645c0-3.404-2.447-3.794-4.68-4.148c-1.773-0.283-3.404-0.603-3.404-2.695  c0-2.092,1.524-2.693,3.829-2.693c1.241,0,2.588,0.177,3.51,0.283v-1.489c-1.028-0.106-2.269-0.248-3.51-0.248  c-2.801,0-5.531,0.745-5.531,4.147c0,3.156,2.198,3.759,4.325,4.078c1.915,0.318,3.758,0.603,3.758,2.694  C91.198,58.721,89.851,59.75,87.298,59.75 M95.24,60.92h1.631V45.815H95.24V60.92z M100.239,45.815V60.92h8.97v-1.454h-7.375v-13.65  H100.239z M111.301,60.92h1.631V45.815h-1.631V60.92z M115.698,53.367c0,4.787,2.092,7.836,6.772,7.836  c1.063,0,2.517-0.178,3.829-0.567v-1.524c-1.206,0.426-2.588,0.639-3.758,0.639c-2.872,0-5.176-1.703-5.176-6.418  c0-4.609,2.127-6.275,5.318-6.275c1.099,0,2.481,0.248,3.616,0.566V46.1c-1.418-0.32-2.694-0.497-3.829-0.497  C117.86,45.567,115.698,48.616,115.698,53.367 M139.24,53.367c0,4.539-1.879,6.383-4.893,6.383s-4.893-1.88-4.893-6.383  c0-4.502,1.879-6.346,4.893-6.346S139.24,48.865,139.24,53.367 M127.752,53.367c0,4.822,1.986,7.836,6.595,7.836  c4.645,0,6.524-3.014,6.524-7.836c0-4.786-1.879-7.765-6.524-7.765C129.738,45.567,127.752,48.545,127.752,53.367 M153.529,60.92  h1.808V45.815h-1.631v12.622l-8.403-12.622h-1.772V60.92h1.631v-12.48L153.529,60.92z M163.385,60.92h1.738l1.24-3.546h7.127  l1.24,3.546h1.773l-5.39-15.104h-2.376L163.385,60.92z M169.768,47.234h0.318l3.014,8.686h-6.346L169.768,47.234z M189.303,56.133  V45.815h-1.631v10.424c0,2.481-2.127,3.475-4.077,3.475c-1.915,0-4.077-0.993-4.077-3.475V45.815h-1.596v10.282  c0,3.403,2.375,5.07,5.673,5.07C186.856,61.168,189.303,59.572,189.303,56.133 M195.934,59.75c-1.277,0-2.376-0.143-4.043-0.426  v1.524c1.17,0.177,2.589,0.354,4.113,0.354c3.51,0,5.46-1.702,5.46-4.645c0-3.404-2.446-3.794-4.68-4.148  c-1.772-0.283-3.403-0.603-3.403-2.695c0-2.092,1.523-2.693,3.828-2.693c1.241,0,2.589,0.177,3.511,0.283v-1.489  c-1.028-0.106-2.27-0.248-3.511-0.248c-2.801,0-5.531,0.745-5.531,4.147c0,3.156,2.199,3.759,4.326,4.078  c1.914,0.318,3.758,0.603,3.758,2.694C199.833,58.721,198.486,59.75,195.934,59.75 M215.043,45.815h-12.338v1.454h5.354v13.65h1.631  V47.27h5.354V45.815z M217.135,45.815V60.92h1.631v-5.496h2.802c0.673,0,1.17-0.07,1.276-0.07l2.871,5.566h1.809l-3.119-6.027  c1.771-0.958,2.375-2.802,2.375-4.256c0-2.906-1.773-4.785-5.105-4.785h-4.539V45.815z M218.73,47.27h3.049  c2.341,0,3.298,1.666,3.298,3.297c0,1.737-0.957,3.404-3.155,3.404h-3.191V47.27L218.73,47.27z M229.793,60.92h1.631V45.815h-1.631  V60.92z M233.657,60.92h1.737l1.241-3.546h7.126l1.241,3.546h1.772l-5.389-15.104h-2.375L233.657,60.92z M240.004,47.234h0.319  l3.014,8.686h-6.347L240.004,47.234z M254.754,45.815V60.92h8.97v-1.454h-7.375v-13.65H254.754z M265.178,60.92h1.736l1.241-3.546  h7.126l1.242,3.546h1.771l-5.389-15.104h-2.375L265.178,60.92z M271.523,47.234h0.319l3.014,8.686h-6.347L271.523,47.234z   M285.741,45.815h-5.495V60.92h5.814c2.836,0,4.609-1.738,4.609-4.148c0-1.738-0.993-3.121-2.943-3.582  c1.666-0.814,2.34-2.162,2.34-3.651C290.102,47.623,288.684,45.815,285.741,45.815 M285.989,59.501h-4.147v-5.495h3.936  c1.949,0,3.19,1.063,3.19,2.658C288.968,58.26,287.975,59.501,285.989,59.501 M281.842,52.588V47.27h3.687  c1.985,0,2.979,1.135,2.979,2.481c0,1.596-1.241,2.837-2.837,2.837H281.842z M296.732,59.75c-1.276,0-2.375-0.143-4.042-0.426v1.524  c1.17,0.177,2.589,0.354,4.148,0.354c3.51,0,5.46-1.702,5.46-4.645c0-3.404-2.446-3.794-4.68-4.148  c-1.773-0.283-3.404-0.603-3.404-2.695c0-2.092,1.525-2.693,3.829-2.693c1.241,0,2.589,0.177,3.511,0.283v-1.489  c-1.029-0.106-2.27-0.248-3.511-0.248c-2.801,0-5.53,0.745-5.53,4.147c0,3.156,2.197,3.759,4.325,4.078  c1.915,0.318,3.759,0.603,3.759,2.694C300.598,58.721,299.25,59.75,296.732,59.75"/>
</svg>